<mxfile host="65bd71144e">
    <diagram id="A37JGKTjF_zl6ahpkyyO" name="Page-1">
        <mxGraphModel dx="1746" dy="1491" grid="1" gridSize="10" guides="1" tooltips="1" connect="1" arrows="1" fold="1" page="1" pageScale="1" pageWidth="850" pageHeight="1100" math="0" shadow="0">
            <root>
                <mxCell id="0"/>
                <mxCell id="1" parent="0"/>
                <mxCell id="2" value="siffor som visas " style="rounded=0;whiteSpace=wrap;html=1;" vertex="1" parent="1">
                    <mxGeometry x="-132" y="-152" width="196" height="60" as="geometry"/>
                </mxCell>
                <mxCell id="3" value="siffrina ska räkna ner till noll" style="rounded=0;whiteSpace=wrap;html=1;" vertex="1" parent="1">
                    <mxGeometry x="145" y="-152" width="206" height="60" as="geometry"/>
                </mxCell>
                <mxCell id="4" value="en ny timer börjar från 10sec" style="rounded=0;whiteSpace=wrap;html=1;" vertex="1" parent="1">
                    <mxGeometry x="378" y="-29" width="120" height="60" as="geometry"/>
                </mxCell>
                <mxCell id="5" value="när timer når noll" style="rhombus;whiteSpace=wrap;html=1;" vertex="1" parent="1">
                    <mxGeometry x="409" y="-162" width="80" height="80" as="geometry"/>
                </mxCell>
                <mxCell id="6" value="när den timern är slut" style="rhombus;whiteSpace=wrap;html=1;" vertex="1" parent="1">
                    <mxGeometry x="398" y="101" width="80" height="80" as="geometry"/>
                </mxCell>
                <mxCell id="7" value="timer på 20 sec räknar ner" style="rounded=0;whiteSpace=wrap;html=1;" vertex="1" parent="1">
                    <mxGeometry x="378" y="243" width="120" height="60" as="geometry"/>
                </mxCell>
                <mxCell id="8" value="" style="shape=flexArrow;endArrow=classic;html=1;rounded=0;fontSize=12;startSize=8;endSize=8;curved=1;" edge="1" parent="1">
                    <mxGeometry width="50" height="50" relative="1" as="geometry">
                        <mxPoint x="327" y="385" as="sourcePoint"/>
                        <mxPoint x="-91" y="-72" as="targetPoint"/>
                    </mxGeometry>
                </mxCell>
                <mxCell id="9" value="" style="shape=flexArrow;endArrow=classic;html=1;rounded=0;fontSize=12;startSize=8;endSize=8;curved=1;entryX=0;entryY=0.887;entryDx=0;entryDy=0;entryPerimeter=0;" edge="1" parent="1">
                    <mxGeometry width="50" height="50" relative="1" as="geometry">
                        <mxPoint x="84" y="-118" as="sourcePoint"/>
                        <mxPoint x="133" y="-114.77999999999997" as="targetPoint"/>
                        <Array as="points">
                            <mxPoint x="88" y="-122"/>
                        </Array>
                    </mxGeometry>
                </mxCell>
                <mxCell id="10" value="" style="endArrow=classic;html=1;rounded=0;fontSize=12;startSize=8;endSize=8;curved=1;" edge="1" parent="1">
                    <mxGeometry width="50" height="50" relative="1" as="geometry">
                        <mxPoint x="364" y="-119" as="sourcePoint"/>
                        <mxPoint x="401" y="-119" as="targetPoint"/>
                    </mxGeometry>
                </mxCell>
                <mxCell id="11" value="|" style="endArrow=classic;html=1;rounded=0;fontSize=12;startSize=8;endSize=8;curved=1;" edge="1" parent="1">
                    <mxGeometry width="50" height="50" relative="1" as="geometry">
                        <mxPoint x="454" y="-69" as="sourcePoint"/>
                        <mxPoint x="458" y="-36" as="targetPoint"/>
                    </mxGeometry>
                </mxCell>
                <mxCell id="12" value="" style="endArrow=classic;html=1;rounded=0;fontSize=12;startSize=8;endSize=8;curved=1;" edge="1" parent="1">
                    <mxGeometry width="50" height="50" relative="1" as="geometry">
                        <mxPoint x="450" y="40" as="sourcePoint"/>
                        <mxPoint x="446" y="91" as="targetPoint"/>
                    </mxGeometry>
                </mxCell>
                <mxCell id="13" value="" style="endArrow=classic;html=1;rounded=0;fontSize=12;startSize=8;endSize=8;curved=1;" edge="1" parent="1">
                    <mxGeometry width="50" height="50" relative="1" as="geometry">
                        <mxPoint x="434" y="198" as="sourcePoint"/>
                        <mxPoint x="434" y="232" as="targetPoint"/>
                    </mxGeometry>
                </mxCell>
                <mxCell id="14" value="" style="endArrow=classic;html=1;rounded=0;fontSize=12;startSize=8;endSize=8;curved=1;" edge="1" parent="1" target="15">
                    <mxGeometry width="50" height="50" relative="1" as="geometry">
                        <mxPoint x="435" y="321" as="sourcePoint"/>
                        <mxPoint x="435" y="389" as="targetPoint"/>
                    </mxGeometry>
                </mxCell>
                <mxCell id="15" value="har detta repeteras 8 ggr?" style="rhombus;whiteSpace=wrap;html=1;" vertex="1" parent="1">
                    <mxGeometry x="393" y="374" width="80" height="80" as="geometry"/>
                </mxCell>
                <mxCell id="16" value="nej?" style="text;html=1;align=center;verticalAlign=middle;resizable=0;points=[];autosize=1;strokeColor=none;fillColor=none;fontSize=16;" vertex="1" parent="1">
                    <mxGeometry x="306.5" y="395.5" width="48" height="31" as="geometry"/>
                </mxCell>
                <mxCell id="17" value="ja" style="text;html=1;align=center;verticalAlign=middle;resizable=0;points=[];autosize=1;strokeColor=none;fillColor=none;fontSize=16;" vertex="1" parent="1">
                    <mxGeometry x="422.5" y="465.5" width="30" height="31" as="geometry"/>
                </mxCell>
                <mxCell id="18" value="" style="endArrow=classic;html=1;rounded=0;fontSize=12;startSize=8;endSize=8;curved=1;" edge="1" parent="1">
                    <mxGeometry width="50" height="50" relative="1" as="geometry">
                        <mxPoint x="439" y="512" as="sourcePoint"/>
                        <mxPoint x="439" y="572" as="targetPoint"/>
                    </mxGeometry>
                </mxCell>
                <mxCell id="19" value="reset knapp" style="rounded=0;whiteSpace=wrap;html=1;" vertex="1" parent="1">
                    <mxGeometry x="378" y="597" width="120" height="60" as="geometry"/>
                </mxCell>
                <mxCell id="20" value="" style="shape=flexArrow;endArrow=classic;html=1;rounded=0;fontSize=12;startSize=8;endSize=8;curved=1;" edge="1" parent="1">
                    <mxGeometry width="50" height="50" relative="1" as="geometry">
                        <mxPoint x="371" y="600" as="sourcePoint"/>
                        <mxPoint x="-127" y="-56" as="targetPoint"/>
                    </mxGeometry>
                </mxCell>
            </root>
        </mxGraphModel>
    </diagram>
</mxfile>